<?xml version="1.0" standalone="no"?>
<!DOCTYPE svg PUBLIC "-//W3C//DTD SVG 20010904//EN"
 "http://www.w3.org/TR/2001/REC-SVG-20010904/DTD/svg10.dtd">
<svg version="1.0" xmlns="http://www.w3.org/2000/svg"
 width="500.000000pt" height="500.000000pt" viewBox="0 0 500.000000 500.000000"
 preserveAspectRatio="xMidYMid meet">
<metadata>
Created by potrace 1.14, written by Peter Selinger 2001-2017
</metadata>
<g transform="translate(0.000000,500.000000) scale(0.100000,-0.100000)"
fill="#000000" stroke="none">
<path d="M2143 4081 c-122 -34 -223 -82 -363 -174 -159 -106 -202 -145 -238
-212 -24 -44 -27 -61 -26 -140 1 -49 3 -98 5 -108 3 -14 -8 -22 -47 -35 -74
-26 -151 -79 -196 -136 -81 -102 -103 -176 -95 -316 l5 -98 -39 -52 c-93 -123
-105 -335 -28 -468 l19 -34 -32 -66 c-32 -64 -33 -72 -33 -182 0 -114 1 -117
38 -192 26 -55 54 -92 98 -132 33 -31 64 -56 70 -56 5 0 9 -31 9 -68 0 -194
109 -362 288 -445 33 -15 63 -39 81 -63 66 -93 186 -169 299 -193 189 -39 391
40 498 194 20 30 40 55 44 55 4 0 24 -25 44 -55 110 -158 329 -240 515 -190
113 30 200 87 273 178 26 33 57 58 90 74 80 37 145 90 192 157 65 90 87 154
94 264 2 50 8 92 13 92 4 0 35 25 68 56 44 40 72 77 98 132 37 75 38 78 38
192 0 109 -2 118 -33 181 l-32 67 32 68 c64 136 46 318 -41 434 l-39 51 5 102
c5 87 2 111 -17 166 -51 151 -158 251 -318 297 -9 2 -10 12 -5 31 15 52 9 166
-11 217 -28 73 -76 118 -236 224 -286 190 -497 244 -640 166 -29 -16 -60 -39
-71 -52 l-19 -24 -28 29 c-71 77 -194 100 -329 64z m182 -92 c50 -14 100 -64
114 -114 7 -26 11 -163 11 -378 l0 -337 -40 20 c-62 31 -130 42 -157 24 -44
-28 -20 -94 35 -94 42 0 105 -37 132 -77 l25 -37 3 -650 2 -651 -27 30 c-94
103 -245 171 -286 130 -36 -36 -15 -69 63 -99 148 -55 243 -197 244 -366 0
-75 -3 -93 -30 -150 -61 -127 -162 -207 -294 -230 -53 -9 -79 -8 -139 4 -111
23 -173 65 -251 171 -22 30 -46 55 -53 55 -24 0 -114 48 -152 81 -90 79 -142
210 -132 327 8 78 4 88 -43 112 -95 48 -169 163 -177 274 -6 63 16 168 37 181
5 3 31 -8 56 -26 58 -39 150 -69 215 -69 41 0 51 4 65 25 15 23 15 27 1 48
-12 19 -28 25 -76 30 -117 13 -219 85 -272 196 -19 37 -23 64 -23 136 -1 80 2
96 27 145 16 30 46 73 68 97 21 23 39 45 39 49 0 3 -7 31 -16 62 -45 153 30
317 177 393 67 34 187 38 264 9 109 -42 196 -153 211 -271 9 -73 19 -89 53
-89 45 0 55 21 48 100 -15 180 -176 353 -349 376 -65 9 -82 33 -82 123 -1 54
4 74 26 112 86 146 289 149 388 4 37 -53 70 -60 96 -20 16 24 16 28 -2 61 -29
55 -94 115 -152 142 -29 13 -52 25 -50 27 2 1 28 16 59 33 72 38 160 71 224
81 71 12 76 12 120 0z m550 -21 c33 -10 93 -36 134 -57 l74 -38 -55 -25 c-61
-28 -123 -85 -153 -141 -18 -33 -18 -36 -2 -61 28 -42 58 -34 103 26 45 60 84
85 146 96 140 25 261 -73 262 -212 1 -93 -16 -117 -91 -132 -190 -39 -341
-213 -345 -399 -1 -50 14 -75 46 -75 37 0 49 17 58 82 16 117 85 215 189 269
66 33 187 38 261 10 158 -60 251 -243 204 -403 -9 -31 -16 -58 -16 -61 0 -3
20 -29 45 -58 72 -84 89 -129 89 -234 1 -84 -2 -94 -33 -153 -56 -103 -147
-165 -267 -180 -49 -6 -61 -11 -73 -34 -14 -24 -14 -28 3 -47 38 -42 187 -15
282 50 23 16 45 29 48 29 12 0 37 -77 43 -131 14 -140 -43 -238 -202 -344 -17
-11 -19 -25 -20 -116 0 -95 -3 -110 -32 -171 -17 -37 -50 -87 -73 -112 -39
-42 -145 -106 -176 -106 -7 0 -31 -24 -53 -52 -80 -108 -155 -157 -268 -178
-121 -21 -260 26 -344 117 -22 24 -55 74 -72 111 l-32 67 -3 944 c-3 943 -3
943 19 987 25 53 63 82 123 93 25 5 53 14 61 21 21 17 19 54 -5 75 -17 16 -26
17 -76 7 -31 -7 -72 -21 -90 -33 l-34 -21 0 239 c0 209 3 243 19 278 46 102
144 125 306 73z"/>
<path d="M1580 3030 c-23 -23 -24 -27 -9 -106 30 -165 175 -322 322 -349 21
-4 41 -14 44 -21 8 -22 -43 -99 -85 -127 -22 -14 -66 -30 -98 -36 -67 -13 -76
-20 -76 -57 0 -41 27 -57 87 -49 109 14 207 87 256 190 16 33 29 66 29 72 0 7
12 15 28 19 117 25 252 110 252 159 0 25 -29 55 -52 55 -9 0 -37 -17 -62 -38
-63 -52 -135 -77 -222 -77 -166 1 -299 123 -323 297 -11 83 -48 111 -91 68z"/>
<path d="M1985 2146 c-169 -54 -285 -195 -310 -378 -6 -48 -6 -48 -45 -48 -31
0 -43 -5 -56 -25 -15 -23 -15 -27 -1 -49 12 -18 27 -24 71 -29 160 -16 287
-142 303 -301 7 -63 33 -94 72 -81 27 8 35 43 28 111 -12 117 -105 255 -214
316 -53 30 -53 30 -53 79 0 151 135 298 291 316 30 3 62 10 72 15 20 10 23 58
5 76 -16 16 -111 14 -163 -2z"/>
<path d="M3452 3078 c-6 -13 -13 -46 -16 -75 -11 -109 -102 -221 -214 -263
-46 -18 -72 -21 -133 -18 -82 5 -133 25 -202 79 -47 38 -87 37 -101 -4 -9 -24
-6 -31 28 -66 44 -45 120 -86 192 -103 51 -12 52 -13 68 -65 31 -98 111 -177
210 -208 76 -23 122 -20 142 10 15 23 15 27 0 50 -11 17 -26 25 -45 25 -85 0
-187 75 -206 151 -6 24 -3 27 29 33 63 12 171 74 220 126 96 103 157 306 102
342 -24 16 -63 8 -74 -14z"/>
<path d="M2697 2266 c-12 -7 -23 -22 -25 -35 -6 -37 22 -58 87 -64 157 -14
272 -133 296 -309 l7 -46 -65 -42 c-107 -67 -172 -153 -201 -265 -21 -80 -20
-128 2 -148 10 -10 25 -17 34 -17 22 0 48 33 48 62 0 47 37 148 72 192 59 78
170 136 259 136 48 0 71 39 49 81 -8 14 -21 19 -55 19 -42 0 -45 2 -45 28 0
41 -26 128 -54 187 -34 68 -120 148 -198 185 -74 35 -177 52 -211 36z"/>
</g>
</svg>
